<svg version="1.0" xmlns="http://www.w3.org/2000/svg"
 width="500.000000pt" height="624.000000pt" viewBox="0 0 500.000000 624.000000"
 preserveAspectRatio="xMidYMid meet">
<metadata>
Created by potrace 1.16, written by Peter Selinger 2001-2019
</metadata>
<g transform="translate(0.000000,624.000000) scale(0.100000,-0.100000)"
fill="#000000" stroke="none">
<path d="M2395 6050 c3 -5 25 -15 48 -21 54 -14 137 -85 188 -161 34 -50 41
-68 43 -119 2 -32 0 -59 -5 -59 -5 0 -8 -10 -8 -22 1 -16 3 -18 6 -6 2 9 17
22 34 28 16 7 29 19 29 28 0 8 8 20 17 27 15 11 15 15 -5 49 -28 48 -28 55 2
26 24 -22 25 -22 23 -2 0 12 -3 19 -6 17 -8 -9 -31 17 -25 29 3 6 -1 2 -10 -8
-13 -16 -18 -17 -31 -6 -9 8 -15 8 -15 2 0 -6 5 -14 10 -17 13 -8 51 -85 42
-85 -4 1 -23 26 -42 57 -96 154 -147 204 -244 236 -58 20 -59 20 -51 7z"/>
<path d="M2140 6009 c0 -6 -9 -8 -22 -4 -22 6 -22 5 -3 -7 11 -7 34 -14 50
-16 17 -2 34 -8 40 -13 13 -13 27 -11 19 4 -4 7 -3 9 2 4 5 -5 9 -12 9 -17 0
-5 16 -20 35 -33 19 -13 34 -29 33 -35 -1 -5 5 -16 15 -24 15 -12 16 -11 3 5
-27 34 6 16 45 -25 55 -59 82 -93 65 -83 -9 5 -12 3 -9 -6 3 -8 10 -13 15 -12
5 1 10 -4 10 -12 0 -20 -8 -13 -68 57 -29 35 -39 50 -21 34 18 -17 32 -25 32
-20 0 18 -46 55 -62 49 -13 -5 -53 28 -53 44 0 3 -5 5 -12 3 -7 -1 -27 4 -45
13 l-33 16 25 -20 c14 -11 29 -21 34 -21 14 0 77 -58 126 -116 26 -30 53 -76
64 -108 11 -31 23 -56 27 -56 4 0 6 -11 3 -25 -6 -33 10 -32 26 3 l12 27 11
-23 c15 -32 31 -22 35 24 5 53 12 57 12 6 0 -23 5 -42 10 -42 6 0 10 5 10 10
0 6 7 10 15 10 19 0 35 31 35 69 0 17 5 31 10 31 6 0 10 12 9 28 l-1 27 -7
-25 c-7 -23 -8 -21 -15 17 -8 44 -25 68 -27 36 0 -14 -2 -14 -6 -3 -8 23 -55
92 -81 118 -12 13 -19 28 -16 34 5 7 2 8 -5 4 -7 -5 -20 -1 -29 7 -30 26 -112
69 -112 59 0 -5 7 -13 16 -16 9 -4 14 -9 11 -12 -3 -3 -15 0 -27 6 -12 6 -24
10 -26 7 -3 -2 13 -14 36 -25 25 -12 36 -15 29 -6 -17 21 -1 17 33 -8 39 -28
109 -103 127 -137 14 -25 13 -26 -6 -8 -27 24 -36 21 -19 -5 16 -25 40 -118
32 -125 -3 -3 -10 15 -16 38 -13 49 -59 134 -67 125 -3 -3 -2 -11 4 -18 17
-24 45 -117 40 -135 -3 -13 -5 -11 -6 7 -1 31 -64 164 -83 176 -8 5 -6 -3 5
-20 19 -29 49 -106 42 -106 -3 0 -19 30 -37 68 -39 82 -142 192 -181 192 -14
0 -29 5 -32 10 -8 13 -85 13 -85 -1z"/>
<path d="M2000 5935 c36 -9 67 -20 68 -25 2 -6 10 -10 18 -10 8 0 14 -5 14
-11 0 -5 5 -7 12 -3 7 4 8 3 4 -4 -4 -6 6 -18 24 -27 17 -9 70 -54 118 -102
48 -47 74 -76 57 -65 -16 11 -38 29 -49 41 -10 11 -22 19 -25 16 -4 -2 -15 8
-25 23 -26 39 -103 89 -188 122 -40 16 -79 29 -85 30 -25 0 25 -38 58 -45 19
-4 48 -15 64 -23 17 -9 33 -15 37 -14 4 1 27 -19 52 -45 26 -26 46 -43 46 -38
0 4 8 1 18 -8 10 -10 21 -15 24 -12 3 3 17 -13 32 -35 30 -46 27 -48 -22 -18
l-35 21 18 -29 18 -29 -31 32 c-18 18 -32 36 -32 40 0 10 -39 61 -40 52 0 -16
33 -83 50 -102 25 -26 17 -36 -10 -12 -13 12 -20 14 -20 6 0 -7 22 -36 50 -64
27 -28 47 -53 45 -56 -8 -8 -75 60 -107 109 -21 32 -27 38 -23 20 l6 -25 -16
25 c-16 24 -16 24 -12 3 3 -13 2 -23 -3 -23 -9 0 -21 25 -26 53 -7 33 -34 90
-41 84 -3 -4 2 -24 11 -46 14 -30 16 -43 7 -60 -11 -19 -6 -24 43 -56 61 -39
75 -43 55 -17 -7 9 0 4 15 -11 16 -16 26 -30 23 -33 -2 -3 -32 8 -66 25 -60
29 -73 29 -48 1 26 -30 -38 27 -71 63 -19 21 -37 35 -40 32 -3 -2 -11 0 -19 6
-29 25 -10 -10 43 -76 58 -73 83 -101 69 -76 -6 11 -2 12 21 7 36 -10 43 -11
124 -26 36 -6 73 -13 83 -15 13 -2 17 1 13 11 -3 8 -1 14 5 14 6 0 9 7 6 14
-4 10 -1 13 9 9 10 -4 14 3 14 23 l1 29 15 -27 c8 -16 17 -28 20 -28 3 0 3 3
1 8 -3 4 -1 16 4 27 6 17 8 17 8 3 1 -28 19 -21 24 10 3 21 4 19 6 -11 1 -26
5 -37 14 -34 31 10 -6 125 -64 197 -16 20 -15 15 5 -27 33 -67 33 -81 1 -24
-70 122 -153 200 -241 227 -24 7 -79 16 -122 18 l-77 6 65 -15z"/>
<path d="M2867 5913 c5 -12 2 -15 -9 -10 -29 11 -28 -6 1 -24 22 -13 28 -23
24 -38 -3 -12 -9 -18 -14 -15 -5 3 -9 0 -9 -5 0 -6 4 -11 10 -11 5 0 7 -7 3
-16 -4 -11 1 -22 12 -30 13 -10 15 -14 5 -14 -8 0 2 -14 23 -31 20 -17 35 -35
32 -40 -3 -4 5 -11 19 -15 13 -3 27 -12 30 -20 5 -12 0 -12 -31 1 -32 14 -34
14 -22 -1 11 -13 9 -14 -17 -9 l-29 7 23 -17 c12 -9 20 -20 17 -25 -3 -5 0
-12 5 -15 7 -5 5 -11 -6 -19 -15 -11 -13 -14 14 -25 17 -7 39 -22 48 -33 16
-16 16 -21 4 -28 -12 -7 -9 -15 15 -40 16 -17 23 -30 15 -30 -9 0 -8 -5 4 -19
10 -11 15 -24 12 -30 -4 -5 -2 -12 3 -16 6 -3 8 -12 5 -19 -3 -8 -1 -17 5 -21
6 -3 11 -13 11 -22 0 -9 8 -22 18 -30 9 -8 11 -12 5 -8 -18 9 -16 -10 1 -24
33 -28 57 -95 71 -203 8 -65 20 -117 29 -127 8 -9 18 -36 22 -59 8 -50 16 -58
36 -34 31 34 31 58 -1 85 -35 29 -40 44 -22 76 11 20 11 25 0 32 -9 5 -10 9
-3 9 7 0 15 17 19 37 4 21 10 42 13 48 3 5 7 26 9 45 1 19 4 55 6 80 6 51 -17
197 -39 248 -8 19 -14 42 -14 52 0 52 -124 250 -198 314 -46 41 -113 87 -144
99 -13 4 -15 2 -11 -10z"/>
<path d="M1827 5903 c-9 -2 -15 -8 -12 -13 3 -4 -4 -6 -14 -3 -11 3 -28 -4
-40 -16 -12 -12 -24 -21 -28 -22 -20 -2 -182 -172 -200 -209 -6 -14 -19 -46
-29 -72 -9 -27 -21 -45 -27 -41 -5 3 -7 1 -3 -5 3 -6 -1 -36 -9 -68 -19 -73
-19 -89 1 -45 8 19 17 32 20 29 7 -8 -28 -78 -37 -73 -4 3 -7 -60 -7 -140 0
-141 1 -145 26 -172 14 -16 24 -28 23 -28 -2 0 0 -17 4 -37 4 -21 11 -36 15
-33 5 3 12 -4 15 -16 5 -13 12 -18 22 -14 14 5 14 3 2 -11 -11 -14 -11 -18 -1
-21 6 -3 9 -9 6 -15 -3 -5 4 -12 16 -15 16 -4 18 -8 9 -14 -10 -6 -9 -10 6
-14 53 -18 75 -28 75 -36 0 -5 -4 -9 -9 -9 -5 0 -7 -9 -4 -20 3 -11 9 -17 14
-15 4 3 6 12 2 20 -3 8 0 15 7 15 7 0 10 7 6 15 -3 8 -1 27 4 41 7 18 7 23 -2
18 -8 -5 -9 2 -5 25 4 20 3 30 -3 26 -12 -8 -12 -3 -1 27 4 13 11 40 15 62 6
32 5 38 -8 33 -13 -5 -13 -2 -5 21 8 21 7 29 -6 38 -11 9 -13 13 -4 16 7 2 9
10 5 17 -5 7 -14 10 -22 7 -16 -6 -19 10 -4 19 5 3 19 19 30 35 19 27 19 29 3
23 -16 -6 -16 -5 -4 10 12 16 12 17 -5 11 -16 -6 -17 -5 -6 7 26 28 10 31 -20
3 -18 -16 -44 -38 -57 -49 l-23 -20 22 43 c12 23 26 45 31 48 5 3 7 9 4 14 -3
4 5 10 16 13 12 3 19 11 16 19 -2 7 5 27 17 43 21 30 20 30 -33 -8 -29 -21
-55 -36 -58 -34 -2 3 15 19 40 35 24 17 52 43 62 58 16 25 13 24 -31 -11 -27
-21 -62 -50 -78 -64 l-29 -26 18 25 c10 14 38 41 62 60 24 19 55 50 69 68 26
34 21 37 -31 18 -11 -5 -38 -14 -60 -22 l-40 -15 25 20 c14 12 31 21 39 21 24
0 123 82 110 91 -7 4 -23 3 -37 -2 -42 -16 -35 -3 12 22 57 30 52 37 -7 11
-25 -11 -48 -18 -51 -15 -3 3 -20 -5 -38 -17 -29 -19 -28 -17 7 14 22 20 47
35 55 34 8 -2 30 4 48 11 23 10 30 17 22 25 -15 19 14 53 52 61 57 12 88 9
110 -11 15 -14 20 -15 16 -4 -2 8 -20 23 -39 33 -49 26 -116 18 -179 -21 -37
-23 -48 -27 -41 -13 11 19 43 49 46 41 0 -3 23 10 50 27 28 18 44 33 36 33
-11 0 -11 3 -1 15 7 8 18 15 25 15 7 0 18 7 25 15 17 20 7 19 -41 -6 -22 -11
-77 -55 -122 -97 -45 -43 -71 -63 -58 -45 12 18 55 61 96 97 40 35 70 68 67
72 -4 4 -2 4 4 1 17 -10 98 24 82 35 -7 4 -15 7 -18 7 -3 -1 -13 -3 -23 -6z"/>
<path d="M2830 4994 c-36 -12 -99 -46 -110 -59 -7 -8 -18 -15 -24 -15 -6 0 -4
5 4 10 8 5 10 10 4 10 -6 0 -17 -7 -24 -15 -7 -8 -18 -15 -25 -15 -6 0 -20 -9
-30 -20 -10 -11 -22 -20 -26 -20 -4 0 -23 -10 -43 -22 -37 -24 -48 -61 -22
-71 8 -3 19 -21 25 -40 10 -29 23 -40 69 -63 31 -15 66 -34 76 -43 18 -15 18
-15 7 7 -12 22 -11 22 61 23 64 1 155 15 120 18 -7 0 -10 5 -7 11 4 6 -2 7
-17 1 -13 -4 -30 -6 -38 -3 -9 3 1 10 24 16 21 6 44 20 50 31 16 29 27 35 63
35 22 0 36 6 43 20 7 14 7 20 0 20 -18 0 -11 18 10 23 11 3 20 13 20 22 0 10
5 14 13 10 6 -4 5 -1 -4 7 -9 7 -14 19 -11 27 3 9 0 11 -8 6 -10 -6 -12 -4 -7
9 13 34 -52 68 -90 48 -14 -8 -25 -6 -43 8 -18 14 -28 16 -38 8 -9 -8 -11 -7
-6 6 3 9 5 16 3 15 -2 0 -11 -3 -19 -5z"/>
<path d="M2107 4857 c3 -6 -9 -8 -30 -5 -20 2 -35 0 -34 -5 3 -12 -53 -29 -76
-23 -13 3 -17 0 -13 -9 3 -10 -5 -15 -27 -18 l-32 -3 33 -13 c39 -16 42 -34 5
-30 -16 2 -37 -2 -48 -9 -17 -10 -15 -11 15 -5 31 6 34 5 22 -10 -12 -14 -11
-16 7 -14 12 1 21 6 21 11 0 6 12 20 28 33 27 22 27 22 4 23 -13 0 -21 4 -17
10 8 13 51 -5 47 -20 -2 -8 3 -10 13 -6 8 3 22 9 32 13 11 4 14 3 9 -5 -5 -8
-1 -11 11 -10 51 4 73 -2 73 -21 0 -11 -8 -22 -17 -24 -10 -3 -2 -6 17 -7 l35
-2 -35 -13 c-19 -7 -71 -14 -115 -15 -55 -1 -74 -4 -60 -10 11 -5 56 -7 100
-5 80 4 83 2 13 -10 -21 -3 -38 -11 -38 -17 0 -5 7 -8 15 -4 8 3 15 2 15 -3 0
-16 63 -18 109 -4 24 7 53 11 62 8 12 -4 20 1 24 15 3 11 24 34 46 52 21 17
39 37 39 45 0 7 6 13 13 13 18 0 60 58 53 73 -2 7 -5 4 -5 -6 -1 -12 -5 -15
-13 -10 -7 4 -29 9 -48 10 -19 1 -53 9 -75 17 -47 17 -187 27 -178 13z"/>
<path d="M1481 4812 c-1 -40 66 -244 124 -377 58 -131 90 -175 131 -175 14 0
26 -13 42 -47 12 -27 37 -75 55 -108 61 -114 78 -162 70 -193 -9 -31 -133
-140 -234 -205 -73 -47 -222 -113 -442 -198 -98 -38 -272 -110 -385 -161 -114
-50 -225 -97 -246 -103 -37 -11 -44 -19 -112 -146 -41 -74 -74 -138 -74 -144
0 -5 -25 -91 -56 -190 -62 -201 -99 -368 -109 -495 -5 -57 -18 -116 -41 -180
-39 -106 -74 -252 -110 -449 -21 -121 -24 -164 -24 -405 0 -184 5 -325 17
-438 15 -156 15 -175 0 -305 -11 -82 -17 -209 -17 -315 l0 -178 2359 0 2359 0
12 53 c14 69 57 327 64 397 4 30 16 129 27 220 11 91 24 199 29 240 12 108 13
562 0 870 -12 305 -34 529 -61 648 -11 46 -17 92 -14 103 4 10 0 43 -8 72 -8
28 -18 91 -21 139 -7 97 -43 213 -83 266 -32 43 -82 73 -108 66 -14 -4 -16 -3
-7 4 16 10 0 23 -103 84 -123 73 -219 118 -240 112 -15 -4 -16 -3 -6 4 11 8 2
16 -38 36 -28 15 -56 24 -62 21 -5 -4 -8 -1 -7 5 4 15 -285 173 -406 222 -107
42 -158 67 -166 78 -3 5 -33 28 -67 53 -34 25 -109 91 -167 146 -58 55 -119
107 -135 116 l-30 15 16 -48 c9 -26 20 -53 26 -60 6 -8 5 -33 -3 -75 -13 -69
-110 -367 -160 -492 -41 -103 -76 -211 -90 -283 -14 -68 -27 -87 -46 -71 -16
13 -19 -2 -3 -18 8 -8 5 -22 -9 -49 -11 -22 -68 -163 -126 -314 -59 -151 -118
-302 -131 -335 -13 -33 -48 -134 -78 -225 -30 -91 -94 -277 -141 -415 -81
-237 -111 -331 -256 -800 -34 -110 -66 -204 -72 -210 -7 -7 -9 -3 -5 14 3 13
2 33 -3 45 -4 12 -15 85 -24 162 -9 76 -23 184 -31 239 -8 55 -22 168 -31 250
-9 83 -17 159 -19 170 -2 11 -8 63 -14 115 -6 52 -16 127 -21 165 -12 84 -53
508 -71 725 -19 230 -16 608 9 1120 4 74 4 158 1 185 -3 28 -7 42 -8 31 -1
-16 -48 -114 -61 -126 -17 -15 -42 -92 -37 -111 5 -18 -7 -38 -48 -89 -30 -36
-64 -75 -75 -85 l-22 -20 13 28 c7 15 16 27 21 27 4 0 8 5 8 11 0 5 -4 8 -9 5
-5 -3 -14 1 -21 9 -7 8 -18 15 -25 15 -7 0 -16 7 -19 16 -3 8 -10 13 -15 9 -5
-3 -12 -1 -16 5 -7 11 -73 9 -93 -4 -8 -4 -45 -50 -83 -102 -39 -52 -75 -94
-81 -94 -5 0 3 15 20 34 35 40 92 121 92 132 0 3 -7 1 -15 -6 -9 -8 -25 -9
-42 -4 -34 9 -47 7 -98 -13 -65 -25 -89 -37 -103 -50 -7 -7 -19 -13 -26 -13
-7 0 -31 -9 -54 -20 -22 -11 -50 -20 -62 -20 -11 0 -51 -15 -88 -33 -37 -19
-83 -39 -102 -46 -41 -15 -103 -44 -110 -51 -10 -10 -72 -40 -83 -40 -6 0 -19
-8 -29 -17 -19 -17 -19 -16 -16 32 3 49 3 50 67 87 66 38 232 109 526 223 94
37 229 89 300 117 72 28 138 58 148 66 10 9 33 25 52 36 18 12 70 52 114 91
74 64 82 74 92 122 11 48 10 55 -7 76 -11 12 -28 40 -39 62 -11 22 -36 67 -56
100 -21 33 -41 72 -44 88 -5 17 -14 27 -25 27 -23 0 -72 40 -87 72 -41 84
-103 233 -108 260 -11 56 -74 235 -74 210z m2260 -2712 c-2 -74 -5 -137 -7
-139 -7 -8 -167 -42 -284 -60 -184 -29 -210 -32 -210 -26 0 4 18 30 40 58 23
29 72 93 110 144 72 96 84 106 138 117 19 3 45 15 60 26 21 17 38 20 91 18
l66 -3 -4 -135z"/>
<path d="M2595 4390 c-79 -7 -115 -17 -115 -30 0 -6 -12 -5 -27 1 -28 11 -79
4 -89 -12 -3 -6 0 -16 6 -24 14 -16 56 -20 64 -6 8 12 66 20 72 10 3 -5 -7
-11 -22 -15 -14 -4 -22 -9 -17 -13 5 -3 14 -22 19 -41 12 -43 43 -51 72 -19
20 21 21 21 33 1 8 -12 19 -17 32 -14 13 3 18 1 13 -6 -3 -6 -2 -13 4 -17 21
-13 9 -25 -24 -25 -19 0 -37 -4 -40 -9 -3 -5 -17 -11 -31 -13 -13 -3 -22 -1
-19 3 8 14 -37 10 -96 -7 -74 -22 -90 -24 -90 -14 0 5 12 16 26 23 l27 14 -33
1 c-18 0 -37 7 -41 14 -6 10 -9 9 -14 -3 -3 -9 -18 -15 -38 -14 -40 0 -67 -30
-67 -75 l0 -33 43 7 c23 4 51 13 62 20 13 8 63 13 137 15 64 1 131 6 150 11
18 6 49 9 68 9 27 -2 29 -3 10 -6 -30 -5 -71 -53 -45 -53 8 0 34 12 56 26 41
25 149 43 149 23 0 -5 6 -9 14 -9 18 0 28 -27 13 -34 -7 -3 -2 -3 10 0 17 4
20 1 16 -15 -3 -13 1 -21 14 -24 17 -4 17 -5 -1 -6 -14 -1 -17 -7 -14 -26 5
-26 -16 -37 -25 -12 -2 6 -7 9 -11 5 -4 -3 0 -17 8 -31 16 -24 16 -24 -10 -19
-29 5 -47 -13 -38 -39 5 -18 -28 -37 -34 -20 -2 6 -8 11 -13 11 -6 0 -8 -4 -5
-9 4 -5 0 -11 -6 -13 -7 -3 -13 -11 -14 -19 -4 -52 -4 -54 -13 -40 -7 11 -12
11 -31 -2 -16 -11 -29 -13 -46 -7 -16 7 -24 6 -24 -1 0 -6 -6 -9 -14 -6 -8 3
-16 2 -18 -3 -2 -6 -16 -11 -33 -12 -16 -1 -33 -7 -37 -13 -5 -6 -8 -6 -8 2 0
8 -14 10 -42 7 -26 -2 -45 1 -51 9 -7 9 -10 9 -14 0 -7 -19 -24 -16 -17 2 5
11 2 13 -12 8 -12 -4 -15 -3 -10 5 4 7 2 12 -3 12 -6 0 -11 -12 -11 -26 0 -23
-1 -24 -16 -10 -11 11 -21 13 -32 7 -11 -6 -31 -4 -54 4 -21 7 -40 10 -44 6
-4 -3 -4 2 0 13 5 15 2 17 -16 12 -30 -8 -66 -14 -50 -9 6 3 12 8 12 13 0 5 6
7 13 5 16 -6 31 5 47 35 l13 25 -25 -22 c-30 -28 -41 -29 -33 -4 3 11 0 23 -6
27 -7 4 -9 3 -6 -4 4 -5 4 -17 1 -26 -5 -13 -9 -14 -20 -5 -11 9 -14 7 -14
-10 0 -24 -15 -28 -24 -6 -3 8 -12 15 -20 15 -8 0 -17 6 -19 13 -4 9 -6 9 -6
-1 -1 -8 8 -16 19 -19 11 -3 17 -9 14 -14 -6 -11 164 -179 182 -179 8 0 14 -4
14 -9 0 -5 10 -13 22 -17 12 -3 30 -15 41 -25 11 -10 24 -16 29 -13 5 3 17 -3
27 -15 10 -11 21 -18 25 -14 3 3 6 1 6 -4 0 -6 -4 -13 -8 -15 -5 -1 -12 -15
-15 -30 -6 -22 -3 -27 22 -36 16 -6 33 -7 37 -4 3 4 1 -3 -5 -16 -7 -12 -10
-26 -7 -31 9 -14 -34 -21 -63 -10 -27 11 -173 107 -251 166 l-45 35 50 -47
c67 -61 237 -175 262 -175 28 0 281 131 373 193 150 102 258 198 292 262 10
17 9 18 -4 8 -15 -13 -28 -8 -28 9 0 5 4 7 9 4 5 -3 11 1 14 8 3 8 1 16 -6 19
-13 4 16 89 39 111 8 8 14 21 14 28 0 8 9 31 20 53 24 47 25 65 5 65 -7 0 -19
8 -24 18 -8 13 -10 14 -11 2 0 -8 -11 5 -24 30 -13 24 -21 50 -19 57 3 7 -6
17 -18 22 -13 5 -18 10 -11 10 7 1 10 6 7 12 -4 6 -14 8 -22 5 -8 -3 -11 -1
-8 4 3 6 -2 10 -13 10 -11 0 -41 3 -67 7 -34 4 -46 3 -41 -5 3 -6 2 -13 -3
-17 -14 -8 -2 -35 16 -35 12 0 12 -2 -1 -15 -19 -19 -76 -32 -76 -17 0 6 -9
10 -20 9 -11 -1 -20 -7 -20 -15 0 -8 -5 -10 -12 -5 -7 4 -21 6 -30 5 -11 -2
-18 3 -18 12 0 9 -4 16 -10 16 -5 0 -10 -4 -10 -10 0 -5 -5 -10 -11 -10 -6 0
-9 6 -6 13 2 6 0 22 -4 35 -7 17 -4 27 11 42 11 11 20 29 20 40 0 22 3 22
-115 10z"/>
<path d="M2533 4003 c-27 -21 -50 -42 -49 -48 1 -14 57 -42 81 -41 11 1 26 5
33 10 6 4 17 4 22 1 6 -3 10 -2 10 4 0 8 43 23 72 25 12 1 21 16 10 16 -7 0
-12 5 -12 11 0 7 12 10 30 7 l30 -5 -21 23 c-12 12 -27 20 -35 17 -8 -3 -14 1
-14 8 0 10 -3 10 -8 3 -11 -17 -84 -24 -78 -7 9 24 -20 14 -71 -24z"/>
<path d="M1969 3568 c0 -2 -3 -19 -6 -37 -2 -19 -11 -40 -19 -45 -8 -6 -19
-37 -25 -69 -14 -79 2 -181 45 -277 19 -41 46 -104 61 -140 15 -36 29 -67 31
-69 2 -2 25 14 51 36 59 49 110 82 100 66 -11 -17 3 -16 27 2 10 8 23 12 27 9
4 -2 11 11 15 31 5 30 11 36 46 46 22 6 63 9 92 8 44 -3 58 -9 108 -50 60 -50
143 -95 195 -105 28 -6 33 -3 48 30 12 26 23 35 33 31 11 -4 12 -2 4 8 -8 10
-6 30 9 76 27 89 27 191 0 261 -25 63 -69 130 -84 130 -6 0 -31 -17 -57 -39
-25 -21 -72 -52 -105 -68 -50 -25 -73 -30 -139 -32 -68 -1 -77 1 -72 15 5 14
1 16 -26 11 -18 -3 -40 -8 -48 -11 -14 -5 -94 46 -231 149 -38 29 -76 44 -80
33z"/>
</g>
</svg>
